<svg width="595.28px" height="841.89px" viewBox="0 0 595.28 841.89" xmlns="http://www.w3.org/2000/svg" xmlns:xlink="http://www.w3.org/1999/xlink">
<rect width="100%" height="100%" fill="white"/>
<text x="208.73619140625" y="53.9375" style="font:bold 25px Arial,Helvetica,Arial,sans-serif;white-space:pre;letter-spacing:0px" fill="black">Emma </text>
<text x="290.71861328125" y="53.9375" style="font:bold 25px Arial,Helvetica,Arial,sans-serif;white-space:pre;letter-spacing:0px" fill="black">Stafford</text>
<path d="M 30,91.625 L 565.28,91.625 C 565.28,91.625,565.28,91.625,565.28,91.625 L 565.28,116.6 C 565.28,116.6,565.28,116.6,565.28,116.6 L 30,116.6 C 30,116.6,30,116.6,30,116.6 L 30,91.625 C 30,91.625,30,91.625,30,91.625 Z" fill="#828282" />
<text x="35" y="108.9875" style="font:bold 15px Arial,Helvetica,Arial,sans-serif;white-space:pre;letter-spacing:0px" fill="white">Personal </text>
<text x="102.529296875" y="108.9875" style="font:bold 15px Arial,Helvetica,Arial,sans-serif;white-space:pre;letter-spacing:0px" fill="white">details</text>
<text x="40" y="136.17499999999998" style="font:bold 10px Arial,Helvetica,Arial,sans-serif;white-space:pre;letter-spacing:0px" fill="black">Email </text>
<text x="69.4580078125" y="136.17499999999998" style="font:bold 10px Arial,Helvetica,Arial,sans-serif;white-space:pre;letter-spacing:0px" fill="black">address</text>
<text x="190" y="136.17499999999998" style="font:normal 10px Arial,Helvetica,Arial,sans-serif;white-space:pre;letter-spacing:0px" fill="black">emma</text>
<text x="217.783203125" y="136.17499999999998" style="font:normal 10px Arial,Helvetica,Arial,sans-serif;white-space:pre;letter-spacing:0px" fill="black">.</text>
<text x="220.5615234375" y="136.17499999999998" style="font:normal 10px Arial,Helvetica,Arial,sans-serif;white-space:pre;letter-spacing:0px" fill="black">stafford</text>
<text x="253.9111328125" y="136.17499999999998" style="font:normal 10px Arial,Helvetica,Arial,sans-serif;white-space:pre;letter-spacing:0px" fill="black">@</text>
<text x="264.0625" y="136.17499999999998" style="font:normal 10px Arial,Helvetica,Arial,sans-serif;white-space:pre;letter-spacing:0px" fill="black">gmail</text>
<text x="287.958984375" y="136.17499999999998" style="font:normal 10px Arial,Helvetica,Arial,sans-serif;white-space:pre;letter-spacing:0px" fill="black">.</text>
<text x="290.7373046875" y="136.17499999999998" style="font:normal 10px Arial,Helvetica,Arial,sans-serif;white-space:pre;letter-spacing:0px" fill="black">com</text>
<text x="40" y="158.825" style="font:bold 10px Arial,Helvetica,Arial,sans-serif;white-space:pre;letter-spacing:0px" fill="black">Phone </text>
<text x="73.3349609375" y="158.825" style="font:bold 10px Arial,Helvetica,Arial,sans-serif;white-space:pre;letter-spacing:0px" fill="black">number</text>
<text x="190" y="158.825" style="font:normal 10px Arial,Helvetica,Arial,sans-serif;white-space:pre;letter-spacing:0px" fill="black">(</text>
<text x="193.330078125" y="158.825" style="font:normal 10px Arial,Helvetica,Arial,sans-serif;white-space:pre;letter-spacing:0px" fill="black">121</text>
<text x="210.0146484375" y="158.825" style="font:normal 10px Arial,Helvetica,Arial,sans-serif;white-space:pre;letter-spacing:0px" fill="black">) </text>
<text x="216.123046875" y="158.825" style="font:normal 10px Arial,Helvetica,Arial,sans-serif;white-space:pre;letter-spacing:0px" fill="black">262</text>
<text x="232.8076171875" y="158.825" style="font:normal 10px Arial,Helvetica,Arial,sans-serif;white-space:pre;letter-spacing:0px" fill="black">-</text>
<text x="236.1376953125" y="158.825" style="font:normal 10px Arial,Helvetica,Arial,sans-serif;white-space:pre;letter-spacing:0px" fill="black">3434</text>
<text x="40" y="181.475" style="font:bold 10px Arial,Helvetica,Arial,sans-serif;white-space:pre;letter-spacing:0px" fill="black">Address</text>
<text x="190" y="181.475" style="font:normal 10px Arial,Helvetica,Arial,sans-serif;white-space:pre;letter-spacing:0px" fill="black">Los </text>
<text x="208.9013671875" y="181.475" style="font:normal 10px Arial,Helvetica,Arial,sans-serif;white-space:pre;letter-spacing:0px" fill="black">Angeles</text>
<text x="245.0390625" y="181.475" style="font:normal 10px Arial,Helvetica,Arial,sans-serif;white-space:pre;letter-spacing:0px" fill="black">, </text>
<text x="250.595703125" y="181.475" style="font:normal 10px Arial,Helvetica,Arial,sans-serif;white-space:pre;letter-spacing:0px" fill="black">CA</text>
<path d="M 30,116.6 L 30.5,116.6 C 30.5,116.6,30.5,116.6,30.5,116.6 L 30.5,194.55 C 30.5,194.55,30.5,194.55,30.5,194.55 L 30,194.55 C 30,194.55,30,194.55,30,194.55 L 30,116.6 C 30,116.6,30,116.6,30,116.6 Z" fill="#828282" />
<path d="M 564.78,116.6 L 565.28,116.6 C 565.28,116.6,565.28,116.6,565.28,116.6 L 565.28,194.55 C 565.28,194.55,565.28,194.55,565.28,194.55 L 564.78,194.55 C 564.78,194.55,564.78,194.55,564.78,194.55 L 564.78,116.6 C 564.78,116.6,564.78,116.6,564.78,116.6 Z" fill="#828282" />
<path d="M 30,194.55 L 565.28,194.55 C 565.28,194.55,565.28,194.55,565.28,194.55 L 565.28,195.05 C 565.28,195.05,565.28,195.05,565.28,195.05 L 30,195.05 C 30,195.05,30,195.05,30,195.05 L 30,194.55 C 30,194.55,30,194.55,30,194.55 Z" fill="#828282" />
<path d="M 30,214.55 L 565.28,214.55 C 565.28,214.55,565.28,214.55,565.28,214.55 L 565.28,239.525 C 565.28,239.525,565.28,239.525,565.28,239.525 L 30,239.525 C 30,239.525,30,239.525,30,239.525 L 30,214.55 C 30,214.55,30,214.55,30,214.55 Z" fill="#828282" />
<text x="35" y="231.91250000000002" style="font:bold 15px Arial,Helvetica,Arial,sans-serif;white-space:pre;letter-spacing:0px" fill="white">Resume </text>
<text x="97.52685546875" y="231.91250000000002" style="font:bold 15px Arial,Helvetica,Arial,sans-serif;white-space:pre;letter-spacing:0px" fill="white">Objective</text>
<text x="40" y="259.1" style="font:normal 10px Arial,Helvetica,Arial,sans-serif;white-space:pre;letter-spacing:0px" fill="black">BA </text>
<text x="56.1181640625" y="259.1" style="font:normal 10px Arial,Helvetica,Arial,sans-serif;white-space:pre;letter-spacing:0px" fill="black">student </text>
<text x="91.69921875" y="259.1" style="font:normal 10px Arial,Helvetica,Arial,sans-serif;white-space:pre;letter-spacing:0px" fill="black">in </text>
<text x="102.2607421875" y="259.1" style="font:normal 10px Arial,Helvetica,Arial,sans-serif;white-space:pre;letter-spacing:0px" fill="black">English </text>
<text x="137.8369140625" y="259.1" style="font:normal 10px Arial,Helvetica,Arial,sans-serif;white-space:pre;letter-spacing:0px" fill="black">at </text>
<text x="148.955078125" y="259.1" style="font:normal 10px Arial,Helvetica,Arial,sans-serif;white-space:pre;letter-spacing:0px" fill="black">UCLA</text>
<text x="175.6298828125" y="259.1" style="font:normal 10px Arial,Helvetica,Arial,sans-serif;white-space:pre;letter-spacing:0px" fill="black">, </text>
<text x="181.1865234375" y="259.1" style="font:normal 10px Arial,Helvetica,Arial,sans-serif;white-space:pre;letter-spacing:0px" fill="black">seeking </text>
<text x="218.4326171875" y="259.1" style="font:normal 10px Arial,Helvetica,Arial,sans-serif;white-space:pre;letter-spacing:0px" fill="black">to </text>
<text x="229.55078125" y="259.1" style="font:normal 10px Arial,Helvetica,Arial,sans-serif;white-space:pre;letter-spacing:0px" fill="black">leverage </text>
<text x="270.6884765625" y="259.1" style="font:normal 10px Arial,Helvetica,Arial,sans-serif;white-space:pre;letter-spacing:0px" fill="black">strong </text>
<text x="301.259765625" y="259.1" style="font:normal 10px Arial,Helvetica,Arial,sans-serif;white-space:pre;letter-spacing:0px" fill="black">writing </text>
<text x="332.9345703125" y="259.1" style="font:normal 10px Arial,Helvetica,Arial,sans-serif;white-space:pre;letter-spacing:0px" fill="black">and </text>
<text x="352.3974609375" y="259.1" style="font:normal 10px Arial,Helvetica,Arial,sans-serif;white-space:pre;letter-spacing:0px" fill="black">research </text>
<text x="394.08203125" y="259.1" style="font:normal 10px Arial,Helvetica,Arial,sans-serif;white-space:pre;letter-spacing:0px" fill="black">skills </text>
<text x="418.525390625" y="259.1" style="font:normal 10px Arial,Helvetica,Arial,sans-serif;white-space:pre;letter-spacing:0px" fill="black">and </text>
<text x="437.98828125" y="259.1" style="font:normal 10px Arial,Helvetica,Arial,sans-serif;white-space:pre;letter-spacing:0px" fill="black">knowledge </text>
<text x="488.5791015625" y="259.1" style="font:normal 10px Arial,Helvetica,Arial,sans-serif;white-space:pre;letter-spacing:0px" fill="black">of </text>
<text x="40" y="271.75" style="font:normal 10px Arial,Helvetica,Arial,sans-serif;white-space:pre;letter-spacing:0px" fill="black">contemporary </text>
<text x="103.916015625" y="271.75" style="font:normal 10px Arial,Helvetica,Arial,sans-serif;white-space:pre;letter-spacing:0px" fill="black">literature </text>
<text x="145.6005859375" y="271.75" style="font:normal 10px Arial,Helvetica,Arial,sans-serif;white-space:pre;letter-spacing:0px" fill="black">to </text>
<text x="156.71875" y="271.75" style="font:normal 10px Arial,Helvetica,Arial,sans-serif;white-space:pre;letter-spacing:0px" fill="black">join </text>
<text x="175.0634765625" y="271.75" style="font:normal 10px Arial,Helvetica,Arial,sans-serif;white-space:pre;letter-spacing:0px" fill="black">the </text>
<text x="191.7431640625" y="271.75" style="font:normal 10px Arial,Helvetica,Arial,sans-serif;white-space:pre;letter-spacing:0px" fill="black">Random </text>
<text x="232.3193359375" y="271.75" style="font:normal 10px Arial,Helvetica,Arial,sans-serif;white-space:pre;letter-spacing:0px" fill="black">House </text>
<text x="264.00390625" y="271.75" style="font:normal 10px Arial,Helvetica,Arial,sans-serif;white-space:pre;letter-spacing:0px" fill="black">Publishing </text>
<text x="312.9248046875" y="271.75" style="font:normal 10px Arial,Helvetica,Arial,sans-serif;white-space:pre;letter-spacing:0px" fill="black">team </text>
<text x="337.9345703125" y="271.75" style="font:normal 10px Arial,Helvetica,Arial,sans-serif;white-space:pre;letter-spacing:0px" fill="black">as </text>
<text x="351.2744140625" y="271.75" style="font:normal 10px Arial,Helvetica,Arial,sans-serif;white-space:pre;letter-spacing:0px" fill="black">an </text>
<text x="365.17578125" y="271.75" style="font:normal 10px Arial,Helvetica,Arial,sans-serif;white-space:pre;letter-spacing:0px" fill="black">Editorial </text>
<text x="404.08203125" y="271.75" style="font:normal 10px Arial,Helvetica,Arial,sans-serif;white-space:pre;letter-spacing:0px" fill="black">Assistant</text>
<text x="444.6533203125" y="271.75" style="font:normal 10px Arial,Helvetica,Arial,sans-serif;white-space:pre;letter-spacing:0px" fill="black">. </text>
<text x="450.2099609375" y="271.75" style="font:normal 10px Arial,Helvetica,Arial,sans-serif;white-space:pre;letter-spacing:0px" fill="black">President's </text>
<text x="502.1435546875" y="271.75" style="font:normal 10px Arial,Helvetica,Arial,sans-serif;white-space:pre;letter-spacing:0px" fill="black">Honor </text>
<text x="532.158203125" y="271.75" style="font:normal 10px Arial,Helvetica,Arial,sans-serif;white-space:pre;letter-spacing:0px" fill="black">Roll </text>
<text x="40" y="284.4" style="font:normal 10px Arial,Helvetica,Arial,sans-serif;white-space:pre;letter-spacing:0px" fill="black">recipient </text>
<text x="80.576171875" y="284.4" style="font:normal 10px Arial,Helvetica,Arial,sans-serif;white-space:pre;letter-spacing:0px" fill="black">every </text>
<text x="107.8076171875" y="284.4" style="font:normal 10px Arial,Helvetica,Arial,sans-serif;white-space:pre;letter-spacing:0px" fill="black">semester</text>
<text x="148.9306640625" y="284.4" style="font:normal 10px Arial,Helvetica,Arial,sans-serif;white-space:pre;letter-spacing:0px" fill="black">, </text>
<text x="154.4873046875" y="284.4" style="font:normal 10px Arial,Helvetica,Arial,sans-serif;white-space:pre;letter-spacing:0px" fill="black">have </text>
<text x="178.9501953125" y="284.4" style="font:normal 10px Arial,Helvetica,Arial,sans-serif;white-space:pre;letter-spacing:0px" fill="black">earned </text>
<text x="212.8662109375" y="284.4" style="font:normal 10px Arial,Helvetica,Arial,sans-serif;white-space:pre;letter-spacing:0px" fill="black">multiple </text>
<text x="250.1025390625" y="284.4" style="font:normal 10px Arial,Helvetica,Arial,sans-serif;white-space:pre;letter-spacing:0px" fill="black">merit</text>
<text x="272.32421875" y="284.4" style="font:normal 10px Arial,Helvetica,Arial,sans-serif;white-space:pre;letter-spacing:0px" fill="black">-</text>
<text x="275.654296875" y="284.4" style="font:normal 10px Arial,Helvetica,Arial,sans-serif;white-space:pre;letter-spacing:0px" fill="black">based </text>
<text x="305.6787109375" y="284.4" style="font:normal 10px Arial,Helvetica,Arial,sans-serif;white-space:pre;letter-spacing:0px" fill="black">scholarships</text>
<text x="361.259765625" y="284.4" style="font:normal 10px Arial,Helvetica,Arial,sans-serif;white-space:pre;letter-spacing:0px" fill="black">, </text>
<text x="366.81640625" y="284.4" style="font:normal 10px Arial,Helvetica,Arial,sans-serif;white-space:pre;letter-spacing:0px" fill="black">and </text>
<text x="386.279296875" y="284.4" style="font:normal 10px Arial,Helvetica,Arial,sans-serif;white-space:pre;letter-spacing:0px" fill="black">have </text>
<text x="410.7421875" y="284.4" style="font:normal 10px Arial,Helvetica,Arial,sans-serif;white-space:pre;letter-spacing:0px" fill="black">experience </text>
<text x="462.44140625" y="284.4" style="font:normal 10px Arial,Helvetica,Arial,sans-serif;white-space:pre;letter-spacing:0px" fill="black">studying </text>
<text x="502.4658203125" y="284.4" style="font:normal 10px Arial,Helvetica,Arial,sans-serif;white-space:pre;letter-spacing:0px" fill="black">abroad</text>
<text x="533.603515625" y="284.4" style="font:normal 10px Arial,Helvetica,Arial,sans-serif;white-space:pre;letter-spacing:0px" fill="black">.</text>
<path d="M 30,239.525 L 30.5,239.525 C 30.5,239.525,30.5,239.525,30.5,239.525 L 30.5,297.47499999999997 C 30.5,297.47499999999997,30.5,297.47499999999997,30.5,297.47499999999997 L 30,297.47499999999997 C 30,297.47499999999997,30,297.47499999999997,30,297.47499999999997 L 30,239.525 C 30,239.525,30,239.525,30,239.525 Z" fill="#828282" />
<path d="M 564.78,239.525 L 565.28,239.525 C 565.28,239.525,565.28,239.525,565.28,239.525 L 565.28,297.47499999999997 C 565.28,297.47499999999997,565.28,297.47499999999997,565.28,297.47499999999997 L 564.78,297.47499999999997 C 564.78,297.47499999999997,564.78,297.47499999999997,564.78,297.47499999999997 L 564.78,239.525 C 564.78,239.525,564.78,239.525,564.78,239.525 Z" fill="#828282" />
<path d="M 30,297.47499999999997 L 565.28,297.47499999999997 C 565.28,297.47499999999997,565.28,297.47499999999997,565.28,297.47499999999997 L 565.28,297.97499999999997 C 565.28,297.97499999999997,565.28,297.97499999999997,565.28,297.97499999999997 L 30,297.97499999999997 C 30,297.97499999999997,30,297.97499999999997,30,297.97499999999997 L 30,297.47499999999997 C 30,297.47499999999997,30,297.47499999999997,30,297.47499999999997 Z" fill="#828282" />
<path d="M 30,317.47499999999997 L 565.28,317.47499999999997 C 565.28,317.47499999999997,565.28,317.47499999999997,565.28,317.47499999999997 L 565.28,342.45 C 565.28,342.45,565.28,342.45,565.28,342.45 L 30,342.45 C 30,342.45,30,342.45,30,342.45 L 30,317.47499999999997 C 30,317.47499999999997,30,317.47499999999997,30,317.47499999999997 Z" fill="#828282" />
<text x="35" y="334.8375" style="font:bold 15px Arial,Helvetica,Arial,sans-serif;white-space:pre;letter-spacing:0px" fill="white">Education</text>
<text x="190" y="362.025" style="font:bold 10px Arial,Helvetica,Arial,sans-serif;white-space:pre;letter-spacing:0px" fill="black">Bachelor </text>
<text x="235.5712890625" y="362.025" style="font:bold 10px Arial,Helvetica,Arial,sans-serif;white-space:pre;letter-spacing:0px" fill="black">of </text>
<text x="247.7880859375" y="362.025" style="font:bold 10px Arial,Helvetica,Arial,sans-serif;white-space:pre;letter-spacing:0px" fill="black">Arts</text>
<text x="267.79296875" y="362.025" style="font:bold 10px Arial,Helvetica,Arial,sans-serif;white-space:pre;letter-spacing:0px" fill="black">, </text>
<text x="273.349609375" y="362.025" style="font:bold 10px Arial,Helvetica,Arial,sans-serif;white-space:pre;letter-spacing:0px" fill="black">English</text>
<text x="190" y="374.67499999999995" style="font:normal 10px Arial,Helvetica,Arial,sans-serif;white-space:pre;letter-spacing:0px" fill="#828282">UCLA</text>
<text x="216.6748046875" y="374.67499999999995" style="font:normal 10px Arial,Helvetica,Arial,sans-serif;white-space:pre;letter-spacing:0px" fill="#828282">, </text>
<text x="222.2314453125" y="374.67499999999995" style="font:normal 10px Arial,Helvetica,Arial,sans-serif;white-space:pre;letter-spacing:0px" fill="#828282">Los </text>
<text x="241.1328125" y="374.67499999999995" style="font:normal 10px Arial,Helvetica,Arial,sans-serif;white-space:pre;letter-spacing:0px" fill="#828282">Angeles</text>
<text x="277.2705078125" y="374.67499999999995" style="font:normal 10px Arial,Helvetica,Arial,sans-serif;white-space:pre;letter-spacing:0px" fill="#828282">, </text>
<text x="282.8271484375" y="374.67499999999995" style="font:normal 10px Arial,Helvetica,Arial,sans-serif;white-space:pre;letter-spacing:0px" fill="#828282">CA</text>
<text x="190" y="387.32499999999993" style="font:normal 10px Arial,Helvetica,Arial,sans-serif;white-space:pre;letter-spacing:0px" fill="black">Expected </text>
<text x="234.47265625" y="387.32499999999993" style="font:normal 10px Arial,Helvetica,Arial,sans-serif;white-space:pre;letter-spacing:0px" fill="black">Graduation </text>
<text x="286.728515625" y="387.32499999999993" style="font:normal 10px Arial,Helvetica,Arial,sans-serif;white-space:pre;letter-spacing:0px" fill="black">Date</text>
<text x="307.8515625" y="387.32499999999993" style="font:normal 10px Arial,Helvetica,Arial,sans-serif;white-space:pre;letter-spacing:0px" fill="black">: </text>
<text x="313.408203125" y="387.32499999999993" style="font:normal 10px Arial,Helvetica,Arial,sans-serif;white-space:pre;letter-spacing:0px" fill="black">May </text>
<text x="335.078125" y="387.32499999999993" style="font:normal 10px Arial,Helvetica,Arial,sans-serif;white-space:pre;letter-spacing:0px" fill="black">2022</text>
<text x="210" y="399.9749999999999" style="font:normal 10px Arial,Helvetica,Arial,sans-serif;white-space:pre;letter-spacing:0px" fill="black">GPA</text>
<text x="231.1181640625" y="399.9749999999999" style="font:normal 10px Arial,Helvetica,Arial,sans-serif;white-space:pre;letter-spacing:0px" fill="black">: </text>
<text x="236.6748046875" y="399.9749999999999" style="font:normal 10px Arial,Helvetica,Arial,sans-serif;white-space:pre;letter-spacing:0px" fill="black">3.9</text>
<circle cx="200" cy="397.9749999999999" r="2" fill="black"/>
<text x="210" y="412.6249999999999" style="font:normal 10px Arial,Helvetica,Arial,sans-serif;white-space:pre;letter-spacing:0px" fill="black">President's </text>
<text x="261.93359375" y="412.6249999999999" style="font:normal 10px Arial,Helvetica,Arial,sans-serif;white-space:pre;letter-spacing:0px" fill="black">Honor </text>
<text x="291.9482421875" y="412.6249999999999" style="font:normal 10px Arial,Helvetica,Arial,sans-serif;white-space:pre;letter-spacing:0px" fill="black">Roll </text>
<text x="311.953125" y="412.6249999999999" style="font:normal 10px Arial,Helvetica,Arial,sans-serif;white-space:pre;letter-spacing:0px" fill="black">every </text>
<text x="339.1845703125" y="412.6249999999999" style="font:normal 10px Arial,Helvetica,Arial,sans-serif;white-space:pre;letter-spacing:0px" fill="black">semester</text>
<circle cx="200" cy="410.6249999999999" r="2" fill="black"/>
<text x="210" y="425.27499999999986" style="font:normal 10px Arial,Helvetica,Arial,sans-serif;white-space:pre;letter-spacing:0px" fill="black">Studied </text>
<text x="246.6943359375" y="425.27499999999986" style="font:normal 10px Arial,Helvetica,Arial,sans-serif;white-space:pre;letter-spacing:0px" fill="black">abroad </text>
<text x="280.6103515625" y="425.27499999999986" style="font:normal 10px Arial,Helvetica,Arial,sans-serif;white-space:pre;letter-spacing:0px" fill="black">in </text>
<text x="291.171875" y="425.27499999999986" style="font:normal 10px Arial,Helvetica,Arial,sans-serif;white-space:pre;letter-spacing:0px" fill="black">London</text>
<text x="324.541015625" y="425.27499999999986" style="font:normal 10px Arial,Helvetica,Arial,sans-serif;white-space:pre;letter-spacing:0px" fill="black">, </text>
<text x="330.09765625" y="425.27499999999986" style="font:normal 10px Arial,Helvetica,Arial,sans-serif;white-space:pre;letter-spacing:0px" fill="black">Fall </text>
<text x="348.9892578125" y="425.27499999999986" style="font:normal 10px Arial,Helvetica,Arial,sans-serif;white-space:pre;letter-spacing:0px" fill="black">2020</text>
<circle cx="200" cy="423.27499999999986" r="2" fill="black"/>
<text x="210" y="437.92499999999984" style="font:normal 10px Arial,Helvetica,Arial,sans-serif;white-space:pre;letter-spacing:0px" fill="black">Won </text>
<text x="233.33984375" y="437.92499999999984" style="font:normal 10px Arial,Helvetica,Arial,sans-serif;white-space:pre;letter-spacing:0px" fill="black">3 </text>
<text x="241.6796875" y="437.92499999999984" style="font:normal 10px Arial,Helvetica,Arial,sans-serif;white-space:pre;letter-spacing:0px" fill="black">merit</text>
<text x="263.9013671875" y="437.92499999999984" style="font:normal 10px Arial,Helvetica,Arial,sans-serif;white-space:pre;letter-spacing:0px" fill="black">-</text>
<text x="267.2314453125" y="437.92499999999984" style="font:normal 10px Arial,Helvetica,Arial,sans-serif;white-space:pre;letter-spacing:0px" fill="black">based </text>
<text x="297.255859375" y="437.92499999999984" style="font:normal 10px Arial,Helvetica,Arial,sans-serif;white-space:pre;letter-spacing:0px" fill="black">scholarships</text>
<circle cx="200" cy="435.92499999999984" r="2" fill="black"/>
<path d="M 30,342.45 L 30.5,342.45 C 30.5,342.45,30.5,342.45,30.5,342.45 L 30.5,450.99999999999983 C 30.5,450.99999999999983,30.5,450.99999999999983,30.5,450.99999999999983 L 30,450.99999999999983 C 30,450.99999999999983,30,450.99999999999983,30,450.99999999999983 L 30,342.45 C 30,342.45,30,342.45,30,342.45 Z" fill="#828282" />
<path d="M 564.78,342.45 L 565.28,342.45 C 565.28,342.45,565.28,342.45,565.28,342.45 L 565.28,450.99999999999983 C 565.28,450.99999999999983,565.28,450.99999999999983,565.28,450.99999999999983 L 564.78,450.99999999999983 C 564.78,450.99999999999983,564.78,450.99999999999983,564.78,450.99999999999983 L 564.78,342.45 C 564.78,342.45,564.78,342.45,564.78,342.45 Z" fill="#828282" />
<path d="M 30,450.99999999999983 L 565.28,450.99999999999983 C 565.28,450.99999999999983,565.28,450.99999999999983,565.28,450.99999999999983 L 565.28,451.49999999999983 C 565.28,451.49999999999983,565.28,451.49999999999983,565.28,451.49999999999983 L 30,451.49999999999983 C 30,451.49999999999983,30,451.49999999999983,30,451.49999999999983 L 30,450.99999999999983 C 30,450.99999999999983,30,450.99999999999983,30,450.99999999999983 Z" fill="#828282" />
<path d="M 30,470.99999999999983 L 565.28,470.99999999999983 C 565.28,470.99999999999983,565.28,470.99999999999983,565.28,470.99999999999983 L 565.28,495.97499999999985 C 565.28,495.97499999999985,565.28,495.97499999999985,565.28,495.97499999999985 L 30,495.97499999999985 C 30,495.97499999999985,30,495.97499999999985,30,495.97499999999985 L 30,470.99999999999983 C 30,470.99999999999983,30,470.99999999999983,30,470.99999999999983 Z" fill="#828282" />
<text x="35" y="488.36249999999984" style="font:bold 15px Arial,Helvetica,Arial,sans-serif;white-space:pre;letter-spacing:0px" fill="white">Work </text>
<text x="76.66748046875" y="488.36249999999984" style="font:bold 15px Arial,Helvetica,Arial,sans-serif;white-space:pre;letter-spacing:0px" fill="white">Experience</text>
<text x="40" y="515.5499999999998" style="font:bold 10px Arial,Helvetica,Arial,sans-serif;white-space:pre;letter-spacing:0px" fill="black">May </text>
<text x="62.2314453125" y="515.5499999999998" style="font:bold 10px Arial,Helvetica,Arial,sans-serif;white-space:pre;letter-spacing:0px" fill="black">2020 </text>
<text x="87.255859375" y="515.5499999999998" style="font:bold 10px Arial,Helvetica,Arial,sans-serif;white-space:pre;letter-spacing:0px" fill="black">- </text>
<text x="93.3642578125" y="515.5499999999998" style="font:bold 10px Arial,Helvetica,Arial,sans-serif;white-space:pre;letter-spacing:0px" fill="black">Aug </text>
<text x="115.5810546875" y="515.5499999999998" style="font:bold 10px Arial,Helvetica,Arial,sans-serif;white-space:pre;letter-spacing:0px" fill="black">2020</text>
<text x="190" y="515.5499999999998" style="font:bold 10px Arial,Helvetica,Arial,sans-serif;white-space:pre;letter-spacing:0px" fill="black">Editorial </text>
<text x="232.783203125" y="515.5499999999998" style="font:bold 10px Arial,Helvetica,Arial,sans-serif;white-space:pre;letter-spacing:0px" fill="black">Intern</text>
<text x="190" y="528.1999999999999" style="font:normal 10px Arial,Helvetica,Arial,sans-serif;white-space:pre;letter-spacing:0px" fill="#828282">Bookworm </text>
<text x="240.0146484375" y="528.1999999999999" style="font:normal 10px Arial,Helvetica,Arial,sans-serif;white-space:pre;letter-spacing:0px" fill="#828282">Publishing</text>
<text x="286.1572265625" y="528.1999999999999" style="font:normal 10px Arial,Helvetica,Arial,sans-serif;white-space:pre;letter-spacing:0px" fill="#828282">, </text>
<text x="291.7138671875" y="528.1999999999999" style="font:normal 10px Arial,Helvetica,Arial,sans-serif;white-space:pre;letter-spacing:0px" fill="#828282">Los </text>
<text x="310.615234375" y="528.1999999999999" style="font:normal 10px Arial,Helvetica,Arial,sans-serif;white-space:pre;letter-spacing:0px" fill="#828282">Angles</text>
<text x="341.19140625" y="528.1999999999999" style="font:normal 10px Arial,Helvetica,Arial,sans-serif;white-space:pre;letter-spacing:0px" fill="#828282">, </text>
<text x="346.748046875" y="528.1999999999999" style="font:normal 10px Arial,Helvetica,Arial,sans-serif;white-space:pre;letter-spacing:0px" fill="#828282">CA</text>
<text x="210" y="540.8499999999999" style="font:normal 10px Arial,Helvetica,Arial,sans-serif;white-space:pre;letter-spacing:0px" fill="black">Shadowed </text>
<text x="260.0390625" y="540.8499999999999" style="font:normal 10px Arial,Helvetica,Arial,sans-serif;white-space:pre;letter-spacing:0px" fill="black">experienced </text>
<text x="317.2998046875" y="540.8499999999999" style="font:normal 10px Arial,Helvetica,Arial,sans-serif;white-space:pre;letter-spacing:0px" fill="black">editor </text>
<text x="345.0927734375" y="540.8499999999999" style="font:normal 10px Arial,Helvetica,Arial,sans-serif;white-space:pre;letter-spacing:0px" fill="black">to </text>
<text x="356.2109375" y="540.8499999999999" style="font:normal 10px Arial,Helvetica,Arial,sans-serif;white-space:pre;letter-spacing:0px" fill="black">learn </text>
<text x="381.2255859375" y="540.8499999999999" style="font:normal 10px Arial,Helvetica,Arial,sans-serif;white-space:pre;letter-spacing:0px" fill="black">the </text>
<text x="397.9052734375" y="540.8499999999999" style="font:normal 10px Arial,Helvetica,Arial,sans-serif;white-space:pre;letter-spacing:0px" fill="black">entire </text>
<text x="425.6982421875" y="540.8499999999999" style="font:normal 10px Arial,Helvetica,Arial,sans-serif;white-space:pre;letter-spacing:0px" fill="black">editing </text>
<text x="457.9443359375" y="540.8499999999999" style="font:normal 10px Arial,Helvetica,Arial,sans-serif;white-space:pre;letter-spacing:0px" fill="black">process</text>
<circle cx="200" cy="538.8499999999999" r="2" fill="black"/>
<text x="210" y="553.4999999999999" style="font:normal 10px Arial,Helvetica,Arial,sans-serif;white-space:pre;letter-spacing:0px" fill="black">Marked </text>
<text x="246.123046875" y="553.4999999999999" style="font:normal 10px Arial,Helvetica,Arial,sans-serif;white-space:pre;letter-spacing:0px" fill="black">up </text>
<text x="260.0244140625" y="553.4999999999999" style="font:normal 10px Arial,Helvetica,Arial,sans-serif;white-space:pre;letter-spacing:0px" fill="black">real </text>
<text x="279.4775390625" y="553.4999999999999" style="font:normal 10px Arial,Helvetica,Arial,sans-serif;white-space:pre;letter-spacing:0px" fill="black">book </text>
<text x="303.9404296875" y="553.4999999999999" style="font:normal 10px Arial,Helvetica,Arial,sans-serif;white-space:pre;letter-spacing:0px" fill="black">chapters </text>
<text x="345.0732421875" y="553.4999999999999" style="font:normal 10px Arial,Helvetica,Arial,sans-serif;white-space:pre;letter-spacing:0px" fill="black">for </text>
<text x="359.521484375" y="553.4999999999999" style="font:normal 10px Arial,Helvetica,Arial,sans-serif;white-space:pre;letter-spacing:0px" fill="black">review </text>
<text x="391.1962890625" y="553.4999999999999" style="font:normal 10px Arial,Helvetica,Arial,sans-serif;white-space:pre;letter-spacing:0px" fill="black">by </text>
<text x="404.5361328125" y="553.4999999999999" style="font:normal 10px Arial,Helvetica,Arial,sans-serif;white-space:pre;letter-spacing:0px" fill="black">mentor</text>
<circle cx="200" cy="551.4999999999999" r="2" fill="black"/>
<text x="210" y="566.1499999999999" style="font:normal 10px Arial,Helvetica,Arial,sans-serif;white-space:pre;letter-spacing:0px" fill="black">Assisted </text>
<text x="250.5712890625" y="566.1499999999999" style="font:normal 10px Arial,Helvetica,Arial,sans-serif;white-space:pre;letter-spacing:0px" fill="black">with </text>
<text x="271.1328125" y="566.1499999999999" style="font:normal 10px Arial,Helvetica,Arial,sans-serif;white-space:pre;letter-spacing:0px" fill="black">proofreading </text>
<text x="330.0634765625" y="566.1499999999999" style="font:normal 10px Arial,Helvetica,Arial,sans-serif;white-space:pre;letter-spacing:0px" fill="black">and </text>
<text x="349.5263671875" y="566.1499999999999" style="font:normal 10px Arial,Helvetica,Arial,sans-serif;white-space:pre;letter-spacing:0px" fill="black">basic </text>
<text x="375.6494140625" y="566.1499999999999" style="font:normal 10px Arial,Helvetica,Arial,sans-serif;white-space:pre;letter-spacing:0px" fill="black">formatting</text>
<circle cx="200" cy="564.1499999999999" r="2" fill="black"/>
<path d="M 30,495.97499999999985 L 30.5,495.97499999999985 C 30.5,495.97499999999985,30.5,495.97499999999985,30.5,495.97499999999985 L 30.5,579.2249999999998 C 30.5,579.2249999999998,30.5,579.2249999999998,30.5,579.2249999999998 L 30,579.2249999999998 C 30,579.2249999999998,30,579.2249999999998,30,579.2249999999998 L 30,495.97499999999985 C 30,495.97499999999985,30,495.97499999999985,30,495.97499999999985 Z" fill="#828282" />
<path d="M 564.78,495.97499999999985 L 565.28,495.97499999999985 C 565.28,495.97499999999985,565.28,495.97499999999985,565.28,495.97499999999985 L 565.28,579.2249999999998 C 565.28,579.2249999999998,565.28,579.2249999999998,565.28,579.2249999999998 L 564.78,579.2249999999998 C 564.78,579.2249999999998,564.78,579.2249999999998,564.78,579.2249999999998 L 564.78,495.97499999999985 C 564.78,495.97499999999985,564.78,495.97499999999985,564.78,495.97499999999985 Z" fill="#828282" />
<path d="M 30,579.2249999999998 L 565.28,579.2249999999998 C 565.28,579.2249999999998,565.28,579.2249999999998,565.28,579.2249999999998 L 565.28,579.7249999999998 C 565.28,579.7249999999998,565.28,579.7249999999998,565.28,579.7249999999998 L 30,579.7249999999998 C 30,579.7249999999998,30,579.7249999999998,30,579.7249999999998 L 30,579.2249999999998 C 30,579.2249999999998,30,579.2249999999998,30,579.2249999999998 Z" fill="#828282" />
<path d="M 30,599.2249999999998 L 565.28,599.2249999999998 C 565.28,599.2249999999998,565.28,599.2249999999998,565.28,599.2249999999998 L 565.28,624.1999999999998 C 565.28,624.1999999999998,565.28,624.1999999999998,565.28,624.1999999999998 L 30,624.1999999999998 C 30,624.1999999999998,30,624.1999999999998,30,624.1999999999998 L 30,599.2249999999998 C 30,599.2249999999998,30,599.2249999999998,30,599.2249999999998 Z" fill="#828282" />
<text x="35" y="616.5874999999997" style="font:bold 15px Arial,Helvetica,Arial,sans-serif;white-space:pre;letter-spacing:0px" fill="white">Extracurricular </text>
<text x="145.888671875" y="616.5874999999997" style="font:bold 15px Arial,Helvetica,Arial,sans-serif;white-space:pre;letter-spacing:0px" fill="white">Activities</text>
<text x="40" y="643.7749999999999" style="font:bold 10px Arial,Helvetica,Arial,sans-serif;white-space:pre;letter-spacing:0px" fill="black">Aug </text>
<text x="62.216796875" y="643.7749999999999" style="font:bold 10px Arial,Helvetica,Arial,sans-serif;white-space:pre;letter-spacing:0px" fill="black">2019 </text>
<text x="87.2412109375" y="643.7749999999999" style="font:bold 10px Arial,Helvetica,Arial,sans-serif;white-space:pre;letter-spacing:0px" fill="black">- </text>
<text x="93.349609375" y="643.7749999999999" style="font:bold 10px Arial,Helvetica,Arial,sans-serif;white-space:pre;letter-spacing:0px" fill="black">Present</text>
<text x="190" y="643.7749999999999" style="font:bold 10px Arial,Helvetica,Arial,sans-serif;white-space:pre;letter-spacing:0px" fill="black">Editor </text>
<text x="221.6650390625" y="643.7749999999999" style="font:bold 10px Arial,Helvetica,Arial,sans-serif;white-space:pre;letter-spacing:0px" fill="black">of </text>
<text x="233.8818359375" y="643.7749999999999" style="font:bold 10px Arial,Helvetica,Arial,sans-serif;white-space:pre;letter-spacing:0px" fill="black">Student </text>
<text x="273.876953125" y="643.7749999999999" style="font:bold 10px Arial,Helvetica,Arial,sans-serif;white-space:pre;letter-spacing:0px" fill="black">Newspaper</text>
<text x="190" y="656.4249999999998" style="font:normal 10px Arial,Helvetica,Arial,sans-serif;white-space:pre;letter-spacing:0px" fill="#828282">UCLA </text>
<text x="219.453125" y="656.4249999999998" style="font:normal 10px Arial,Helvetica,Arial,sans-serif;white-space:pre;letter-spacing:0px" fill="#828282">Weekly</text>
<text x="252.236328125" y="656.4249999999998" style="font:normal 10px Arial,Helvetica,Arial,sans-serif;white-space:pre;letter-spacing:0px" fill="#828282">, </text>
<text x="257.79296875" y="656.4249999999998" style="font:normal 10px Arial,Helvetica,Arial,sans-serif;white-space:pre;letter-spacing:0px" fill="#828282">Los </text>
<text x="276.6943359375" y="656.4249999999998" style="font:normal 10px Arial,Helvetica,Arial,sans-serif;white-space:pre;letter-spacing:0px" fill="#828282">Angeles</text>
<text x="312.83203125" y="656.4249999999998" style="font:normal 10px Arial,Helvetica,Arial,sans-serif;white-space:pre;letter-spacing:0px" fill="#828282">, </text>
<text x="318.388671875" y="656.4249999999998" style="font:normal 10px Arial,Helvetica,Arial,sans-serif;white-space:pre;letter-spacing:0px" fill="#828282">CA</text>
<text x="210" y="669.0749999999998" style="font:normal 10px Arial,Helvetica,Arial,sans-serif;white-space:pre;letter-spacing:0px" fill="black">Edit </text>
<text x="230.009765625" y="669.0749999999998" style="font:normal 10px Arial,Helvetica,Arial,sans-serif;white-space:pre;letter-spacing:0px" fill="black">and </text>
<text x="249.47265625" y="669.0749999999998" style="font:normal 10px Arial,Helvetica,Arial,sans-serif;white-space:pre;letter-spacing:0px" fill="black">format </text>
<text x="280.5908203125" y="669.0749999999998" style="font:normal 10px Arial,Helvetica,Arial,sans-serif;white-space:pre;letter-spacing:0px" fill="black">the </text>
<text x="297.2705078125" y="669.0749999999998" style="font:normal 10px Arial,Helvetica,Arial,sans-serif;white-space:pre;letter-spacing:0px" fill="black">weekly </text>
<text x="330.615234375" y="669.0749999999998" style="font:normal 10px Arial,Helvetica,Arial,sans-serif;white-space:pre;letter-spacing:0px" fill="black">student </text>
<text x="366.1962890625" y="669.0749999999998" style="font:normal 10px Arial,Helvetica,Arial,sans-serif;white-space:pre;letter-spacing:0px" fill="black">newspaper</text>
<circle cx="200" cy="667.0749999999998" r="2" fill="black"/>
<text x="210" y="681.7249999999998" style="font:normal 10px Arial,Helvetica,Arial,sans-serif;white-space:pre;letter-spacing:0px" fill="black">Contribute </text>
<text x="258.916015625" y="681.7249999999998" style="font:normal 10px Arial,Helvetica,Arial,sans-serif;white-space:pre;letter-spacing:0px" fill="black">articles </text>
<text x="293.369140625" y="681.7249999999998" style="font:normal 10px Arial,Helvetica,Arial,sans-serif;white-space:pre;letter-spacing:0px" fill="black">on </text>
<text x="307.2705078125" y="681.7249999999998" style="font:normal 10px Arial,Helvetica,Arial,sans-serif;white-space:pre;letter-spacing:0px" fill="black">occasion</text>
<circle cx="200" cy="679.7249999999998" r="2" fill="black"/>
<text x="210" y="694.3749999999998" style="font:normal 10px Arial,Helvetica,Arial,sans-serif;white-space:pre;letter-spacing:0px" fill="black">Assign </text>
<text x="242.79296875" y="694.3749999999998" style="font:normal 10px Arial,Helvetica,Arial,sans-serif;white-space:pre;letter-spacing:0px" fill="black">and </text>
<text x="262.255859375" y="694.3749999999998" style="font:normal 10px Arial,Helvetica,Arial,sans-serif;white-space:pre;letter-spacing:0px" fill="black">collect </text>
<text x="293.37890625" y="694.3749999999998" style="font:normal 10px Arial,Helvetica,Arial,sans-serif;white-space:pre;letter-spacing:0px" fill="black">all </text>
<text x="306.162109375" y="694.3749999999998" style="font:normal 10px Arial,Helvetica,Arial,sans-serif;white-space:pre;letter-spacing:0px" fill="black">articles </text>
<text x="340.615234375" y="694.3749999999998" style="font:normal 10px Arial,Helvetica,Arial,sans-serif;white-space:pre;letter-spacing:0px" fill="black">from </text>
<text x="363.3935546875" y="694.3749999999998" style="font:normal 10px Arial,Helvetica,Arial,sans-serif;white-space:pre;letter-spacing:0px" fill="black">staff </text>
<text x="385.068359375" y="694.3749999999998" style="font:normal 10px Arial,Helvetica,Arial,sans-serif;white-space:pre;letter-spacing:0px" fill="black">writers</text>
<circle cx="200" cy="692.3749999999998" r="2" fill="black"/>
<text x="40" y="717.0249999999997" style="font:bold 10px Arial,Helvetica,Arial,sans-serif;white-space:pre;letter-spacing:0px" fill="black">Aug </text>
<text x="62.216796875" y="717.0249999999997" style="font:bold 10px Arial,Helvetica,Arial,sans-serif;white-space:pre;letter-spacing:0px" fill="black">2020 </text>
<text x="87.2412109375" y="717.0249999999997" style="font:bold 10px Arial,Helvetica,Arial,sans-serif;white-space:pre;letter-spacing:0px" fill="black">- </text>
<text x="93.349609375" y="717.0249999999997" style="font:bold 10px Arial,Helvetica,Arial,sans-serif;white-space:pre;letter-spacing:0px" fill="black">Present</text>
<text x="190" y="717.0249999999997" style="font:bold 10px Arial,Helvetica,Arial,sans-serif;white-space:pre;letter-spacing:0px" fill="black">Intramural </text>
<text x="241.6796875" y="717.0249999999997" style="font:bold 10px Arial,Helvetica,Arial,sans-serif;white-space:pre;letter-spacing:0px" fill="black">Water </text>
<text x="272.2412109375" y="717.0249999999997" style="font:bold 10px Arial,Helvetica,Arial,sans-serif;white-space:pre;letter-spacing:0px" fill="black">Polo </text>
<text x="296.6845703125" y="717.0249999999997" style="font:bold 10px Arial,Helvetica,Arial,sans-serif;white-space:pre;letter-spacing:0px" fill="black">Team </text>
<text x="325.5859375" y="717.0249999999997" style="font:bold 10px Arial,Helvetica,Arial,sans-serif;white-space:pre;letter-spacing:0px" fill="black">Captain</text>
<text x="190" y="729.6749999999997" style="font:normal 10px Arial,Helvetica,Arial,sans-serif;white-space:pre;letter-spacing:0px" fill="#828282">UCLA</text>
<text x="216.6748046875" y="729.6749999999997" style="font:normal 10px Arial,Helvetica,Arial,sans-serif;white-space:pre;letter-spacing:0px" fill="#828282">, </text>
<text x="222.2314453125" y="729.6749999999997" style="font:normal 10px Arial,Helvetica,Arial,sans-serif;white-space:pre;letter-spacing:0px" fill="#828282">Los </text>
<text x="241.1328125" y="729.6749999999997" style="font:normal 10px Arial,Helvetica,Arial,sans-serif;white-space:pre;letter-spacing:0px" fill="#828282">Angeles</text>
<text x="277.2705078125" y="729.6749999999997" style="font:normal 10px Arial,Helvetica,Arial,sans-serif;white-space:pre;letter-spacing:0px" fill="#828282">, </text>
<text x="282.8271484375" y="729.6749999999997" style="font:normal 10px Arial,Helvetica,Arial,sans-serif;white-space:pre;letter-spacing:0px" fill="#828282">CA</text>
<text x="210" y="742.3249999999997" style="font:normal 10px Arial,Helvetica,Arial,sans-serif;white-space:pre;letter-spacing:0px" fill="black">Organize </text>
<text x="253.3544921875" y="742.3249999999997" style="font:normal 10px Arial,Helvetica,Arial,sans-serif;white-space:pre;letter-spacing:0px" fill="black">and </text>
<text x="272.8173828125" y="742.3249999999997" style="font:normal 10px Arial,Helvetica,Arial,sans-serif;white-space:pre;letter-spacing:0px" fill="black">hold </text>
<text x="294.501953125" y="742.3249999999997" style="font:normal 10px Arial,Helvetica,Arial,sans-serif;white-space:pre;letter-spacing:0px" fill="black">annual </text>
<text x="327.3095703125" y="742.3249999999997" style="font:normal 10px Arial,Helvetica,Arial,sans-serif;white-space:pre;letter-spacing:0px" fill="black">team </text>
<text x="352.3193359375" y="742.3249999999997" style="font:normal 10px Arial,Helvetica,Arial,sans-serif;white-space:pre;letter-spacing:0px" fill="black">tryouts</text>
<circle cx="200" cy="740.3249999999997" r="2" fill="black"/>
<text x="210" y="754.9749999999997" style="font:normal 10px Arial,Helvetica,Arial,sans-serif;white-space:pre;letter-spacing:0px" fill="black">Plan </text>
<text x="232.79296875" y="754.9749999999997" style="font:normal 10px Arial,Helvetica,Arial,sans-serif;white-space:pre;letter-spacing:0px" fill="black">practice </text>
<text x="270.5859375" y="754.9749999999997" style="font:normal 10px Arial,Helvetica,Arial,sans-serif;white-space:pre;letter-spacing:0px" fill="black">schedule </text>
<text x="313.3935546875" y="754.9749999999997" style="font:normal 10px Arial,Helvetica,Arial,sans-serif;white-space:pre;letter-spacing:0px" fill="black">and </text>
<text x="332.8564453125" y="754.9749999999997" style="font:normal 10px Arial,Helvetica,Arial,sans-serif;white-space:pre;letter-spacing:0px" fill="black">games</text>
<circle cx="200" cy="752.9749999999997" r="2" fill="black"/>
<text x="210" y="767.6249999999997" style="font:normal 10px Arial,Helvetica,Arial,sans-serif;white-space:pre;letter-spacing:0px" fill="black">Perform </text>
<text x="248.33984375" y="767.6249999999997" style="font:normal 10px Arial,Helvetica,Arial,sans-serif;white-space:pre;letter-spacing:0px" fill="black">other </text>
<text x="273.9111328125" y="767.6249999999997" style="font:normal 10px Arial,Helvetica,Arial,sans-serif;white-space:pre;letter-spacing:0px" fill="black">duties </text>
<text x="303.3740234375" y="767.6249999999997" style="font:normal 10px Arial,Helvetica,Arial,sans-serif;white-space:pre;letter-spacing:0px" fill="black">as </text>
<text x="316.7138671875" y="767.6249999999997" style="font:normal 10px Arial,Helvetica,Arial,sans-serif;white-space:pre;letter-spacing:0px" fill="black">assigned </text>
<text x="359.521484375" y="767.6249999999997" style="font:normal 10px Arial,Helvetica,Arial,sans-serif;white-space:pre;letter-spacing:0px" fill="black">by </text>
<text x="372.861328125" y="767.6249999999997" style="font:normal 10px Arial,Helvetica,Arial,sans-serif;white-space:pre;letter-spacing:0px" fill="black">coach</text>
<circle cx="200" cy="765.6249999999997" r="2" fill="black"/>
<path d="M 30,624.1999999999998 L 30.5,624.1999999999998 C 30.5,624.1999999999998,30.5,624.1999999999998,30.5,624.1999999999998 L 30.5,780.6999999999996 C 30.5,780.6999999999996,30.5,780.6999999999996,30.5,780.6999999999996 L 30,780.6999999999996 C 30,780.6999999999996,30,780.6999999999996,30,780.6999999999996 L 30,624.1999999999998 C 30,624.1999999999998,30,624.1999999999998,30,624.1999999999998 Z" fill="#828282" />
<path d="M 564.78,624.1999999999998 L 565.28,624.1999999999998 C 565.28,624.1999999999998,565.28,624.1999999999998,565.28,624.1999999999998 L 565.28,780.6999999999996 C 565.28,780.6999999999996,565.28,780.6999999999996,565.28,780.6999999999996 L 564.78,780.6999999999996 C 564.78,780.6999999999996,564.78,780.6999999999996,564.78,780.6999999999996 L 564.78,624.1999999999998 C 564.78,624.1999999999998,564.78,624.1999999999998,564.78,624.1999999999998 Z" fill="#828282" />
<path d="M 30,780.6999999999996 L 565.28,780.6999999999996 C 565.28,780.6999999999996,565.28,780.6999999999996,565.28,780.6999999999996 L 565.28,781.1999999999996 C 565.28,781.1999999999996,565.28,781.1999999999996,565.28,781.1999999999996 L 30,781.1999999999996 C 30,781.1999999999996,30,781.1999999999996,30,781.1999999999996 L 30,780.6999999999996 C 30,780.6999999999996,30,780.6999999999996,30,780.6999999999996 Z" fill="#828282" />
</svg>